{"title":"Jessie Palmer - My New Black Stepdaddy 5","uid":11188886,"size":319013204,"categoryP":"porn","categoryS":"movie_clips","magnet":"?xt=urn:btih:f5542bbfaf26f322a8a5f11198954ce65f988986&amp;dn=Jessie+Palmer+-+My+New+Black+Stepdaddy+5&amp;tr=udp%3A%2F%2Ftracker.openbittorrent.com%3A80&amp;tr=udp%3A%2F%2Fopen.demonii.com%3A1337&amp;tr=udp%3A%2F%2Ftracker.coppersurfer.tk%3A6969&amp;tr=udp%3A%2F%2Fexodus.desync.com%3A6969","seeders":1,"leechers":0,"uploader":"athklym","files":-1,"time":1412965001,"description":" &lt;a href=&quot;http://bayimg.com/aaAMHAagP&quot; rel=&quot;nofollow&quot; target=&quot;_NEW&quot;&gt;http://bayimg.com/aaAMHAagP&lt;/a&gt;\nJessie_Palmer_My_New_Black_Stepdaddy_5.avi\nFormat                                   : AVI\nFormat/Info                              : Audio Video Interleave\nFile size                                : 304 MiB\nDuration                                 : 29mn 46s\nOverall bit rate                         : 1 428 Kbps\nWriting library                          : MPlayer\n\nVideo\nID                                       : 0\nFormat                                   : MPEG-4 Visual\nFormat profile                           : Simple@L3\nFormat settings, BVOP                    : No\nFormat settings, QPel                    : No\nFormat settings, GMC                     : No warppoints\nFormat settings, Matrix                  : Default (H.263)\nCodec ID                                 : DX50\nCodec ID/Hint                            : DivX 5\nDuration                                 : 29mn 46s\nBit rate                                 : 1 294 Kbps\nWidth                                    : 576 pixels\nHeight                                   : 320 pixels\nDisplay aspect ratio                     : 16:9\nFrame rate                               : 29.970 fps\nColor space                              : YUV\nChroma subsampling                       : 4:2:0\nBit depth                                : 8 bits\nScan type                                : Progressive\nCompression mode                         : Lossy\nBits/(Pixel*Frame)                       : 0.234\nStream size                              : 276 MiB (91%)\nWriting library                          : XviD 1.2.1 (UTC 2008-12-04)\n\nAudio\nID                                       : 1\nFormat                                   : MPEG Audio\nFormat version                           : Version 1\nFormat profile                           : Layer 3\nMode                                     : Joint stereo\nMode extension                           : MS Stereo\nCodec ID                                 : 55\nCodec ID/Hint                            : MP3\nDuration                                 : 29mn 46s\nBit rate mode                            : Constant\nBit rate                                 : 128 Kbps\nChannel(s)                               : 2 channels\nSampling rate                            : 48.0 KHz\nCompression mode                         : Lossy\nStream size                              : 27.3 MiB (9%)\nAlignment                                : Split accross interleaves\nInterleave, duration                     : 500 ms (14.98 video frames)\nInterleave, preload duration             : 500 ms\n\n","torrent":{"xt":"urn:btih:f5542bbfaf26f322a8a5f11198954ce65f988986","amp;dn":"Jessie+Palmer+-+My+New+Black+Stepdaddy+5","amp;tr":["udp%3A%2F%2Ftracker.openbittorrent.com%3A80","udp%3A%2F%2Fopen.demonii.com%3A1337","udp%3A%2F%2Ftracker.coppersurfer.tk%3A6969","udp%3A%2F%2Fexodus.desync.com%3A6969"],"infoHash":"f5542bbfaf26f322a8a5f11198954ce65f988986","infoHashBuffer":{"type":"Buffer","data":[245,84,43,191,175,38,243,34,168,165,241,17,152,149,76,230,95,152,137,134]},"announce":[],"urlList":[]}}